<?xml version="1.0" encoding="UTF-8"?>
<svg id="_レイヤー_1" data-name="レイヤー_1" xmlns="http://www.w3.org/2000/svg" version="1.1" viewBox="0 0 36 36">
  <!-- Generator: Adobe Illustrator 30.3.0, SVG Export Plug-In . SVG Version: 2.1.3 Build 182)  -->
  <path d="M31.5,26.2l-5.2,5.2c-.7.7-1.8.7-2.5,0s-.7-1.8,0-2.5l2.3-2.3H5.8c-1,0-1.8-.8-1.8-1.7s.8-1.7,1.8-1.7h20.3l-2.3-2.3c-.7-.7-.7-1.8,0-2.5s1.8-.7,2.5,0l5.2,5.2c.7.7.7,1.8,0,2.5ZM4.5,12.2c-.7-.7-.7-1.8,0-2.5l5.2-5.2c.7-.7,1.8-.7,2.5,0,.7.7.7,1.8,0,2.5l-2.3,2.3h20.3c1,0,1.8.8,1.8,1.7s-.8,1.7-1.8,1.7H10l2.3,2.3c.7.7.7,1.8,0,2.5s-1.8.7-2.5,0l-5.2-5.2h0Z"/>
</svg>