<?xml version="1.0" encoding="UTF-8"?>
<svg id="_レイヤー_1" data-name="レイヤー_1" xmlns="http://www.w3.org/2000/svg" version="1.1" viewBox="0 0 36 36">
  <!-- Generator: Adobe Illustrator 30.3.0, SVG Export Plug-In . SVG Version: 2.1.3 Build 182)  -->
  <path d="M26.8,22.4h-10.5c-.5,0-.9-.4-.9-.9V7.5c0-.5.4-.9.9-.9h7.3c.2,0,.5,0,.6.3l3.2,3.2c.2.2.3.4.3.6v10.8c0,.5-.4.9-.9.9ZM16.2,25h10.5c1.9,0,3.5-1.6,3.5-3.5v-10.8c0-.9-.4-1.8-1-2.5l-3.2-3.2c-.7-.7-1.5-1-2.5-1h-7.3c-1.9,0-3.5,1.6-3.5,3.5v14c0,1.9,1.6,3.5,3.5,3.5ZM9.2,11c-1.9,0-3.5,1.6-3.5,3.5v14c0,1.9,1.6,3.5,3.5,3.5h10.5c1.9,0,3.5-1.6,3.5-3.5v-.9h-2.6v.9c0,.5-.4.9-.9.9h-10.5c-.5,0-.9-.4-.9-.9v-14c0-.5.4-.9.9-.9h.9v-2.6h-.9Z"/>
</svg>