<?xml version="1.0" encoding="UTF-8"?>
<svg id="_レイヤー_1" data-name="レイヤー_1" xmlns="http://www.w3.org/2000/svg" version="1.1" viewBox="0 0 36 36">
  <!-- Generator: Adobe Illustrator 30.3.0, SVG Export Plug-In . SVG Version: 2.1.3 Build 182)  -->
  <path d="M20.2,9.3h-4.4c-.7,0-1.3-.6-1.3-1.3s.6-1.3,1.3-1.3h4.4c.7,0,1.3.6,1.3,1.3s-.6,1.3-1.3,1.3ZM20.2,11.9c2,0,3.7-1.5,3.9-3.5h.9c.5,0,.9.4.9.9v19.2c0,.5-.4.9-.9.9h-14c-.5,0-.9-.4-.9-.9V9.3c0-.5.4-.9.9-.9h.9c.2,2,1.9,3.5,3.9,3.5h4.4ZM23.5,5.8c-.7-1.1-1.9-1.8-3.3-1.8h-4.4c-1.4,0-2.6.7-3.3,1.8h-1.5c-1.9,0-3.5,1.6-3.5,3.5v19.2c0,1.9,1.6,3.5,3.5,3.5h14c1.9,0,3.5-1.6,3.5-3.5V9.3c0-1.9-1.6-3.5-3.5-3.5h-1.5Z"/>
</svg>